<svg style="margin-bottom: 20px;" width="221" viewBox="0 0 221 94" fill="none" xmlns="http://www.w3.org/2000/svg">
				<path fill-rule="evenodd" clip-rule="evenodd" d="M89.5776 7.27259C84.7201 2.41515 78.3702 0 72.0202 0H71.9931C65.6431 0 59.2932 2.41515 54.4629 7.27259C44.7751 16.9603 44.7751 32.6995 54.4629 42.3873C64.1506 52.075 79.8898 52.075 89.5776 42.3873C99.2653 32.6995 99.2653 16.9603 89.5776 7.27259ZM82.5492 35.3589C76.742 41.1661 67.2985 41.1661 61.4913 35.3589C55.684 29.5517 55.684 20.1082 61.4913 14.301C67.2985 8.49374 76.742 8.49374 82.5492 14.301C88.3564 20.1082 88.3564 29.5517 82.5492 35.3589Z" fill="#2D8CFF"></path>
				<path fill-rule="evenodd" clip-rule="evenodd" d="M141.707 7.27259C136.876 2.41515 130.527 0 124.122 0C117.772 0 111.422 2.41515 106.592 7.27259C96.9044 16.9603 96.9044 32.6995 106.592 42.3873C116.28 52.075 132.019 52.075 141.707 42.3873C151.395 32.6995 151.395 16.9603 141.707 7.27259ZM134.678 35.3589C128.871 41.1661 119.428 41.1661 113.62 35.3589C107.813 29.5517 107.813 20.1082 113.62 14.301C119.428 8.49374 128.871 8.49374 134.678 14.301C140.513 20.1082 140.513 29.5517 134.678 35.3589Z" fill="#2D8CFF"></path>
				<path fill-rule="evenodd" clip-rule="evenodd" d="M9.93197 49.5242L12.4285 49.6599H49.6599L49.5242 47.1904C49.1986 43.0928 46.2949 40.1078 42.1973 39.8636L39.7008 39.7279H17.3945L47.1904 9.93197L47.0548 7.46255C46.8648 3.33779 43.8527 0.352775 39.7279 0.135683L37.2585 0H0L0.135683 2.46943C0.461321 6.51277 3.39207 9.55206 7.46255 9.79629L9.95911 9.93197H32.2925L2.49656 39.7279L2.63224 42.1973C2.84934 46.2949 5.80722 49.2528 9.93197 49.5242Z" fill="#2D8CFF"></path>
				<path fill-rule="evenodd" clip-rule="evenodd" d="M179.915 14.8708C180.757 16.3362 181.028 17.9915 181.136 19.8639L181.272 22.3605V39.755L181.408 42.2245C181.652 46.2949 184.637 49.28 188.735 49.5513L191.204 49.687V22.3605L191.34 19.8639C191.448 18.0187 191.72 16.3362 192.561 14.8708C194.271 11.9129 197.473 9.93197 201.136 9.93197C204.799 9.93197 208.029 11.9401 209.738 14.898C210.58 16.3633 210.851 18.0458 210.932 19.8639L211.068 22.3334V39.7279L211.204 42.1973C211.448 46.2949 214.433 49.28 218.531 49.5242L221 49.6599V22.3605V19.8639C221 8.90078 212.099 0 201.136 0C195.193 0 189.874 2.60511 186.238 6.72986C182.575 2.60511 177.256 0 171.34 0C167.215 0 163.389 1.24828 160.214 3.39207C158.26 1.24828 153.946 0 151.476 0V49.6599L153.973 49.5242C158.125 49.2528 161.137 46.3221 161.3 42.1973L161.435 39.7008V22.3605L161.571 19.8639C161.68 17.9915 161.924 16.3362 162.792 14.8708C164.502 11.9129 167.704 9.93197 171.394 9.93197C175.004 9.93197 178.206 11.9129 179.915 14.8708Z" fill="#2D8CFF"></path>
				<path d="M93.6884 70.8925L91.9927 84.9768L91.1449 88.3681C90.9834 88.8641 90.7585 89.2447 90.4701 89.5101C90.1817 89.7869 89.7723 89.9253 89.2416 89.9253H87.7536L90.0549 70.9271L88.5149 70.6849C88.2727 70.6272 88.0766 70.5291 87.9266 70.3907C87.7882 70.2408 87.7363 70.0216 87.7709 69.7332L87.9613 68.2279H90.3836L90.5739 66.7399C90.7008 65.7363 90.9604 64.8366 91.3526 64.0407C91.7447 63.2448 92.2408 62.57 92.8406 62.0163C93.4404 61.4626 94.1267 61.0416 94.8996 60.7532C95.684 60.4533 96.526 60.3033 97.4258 60.3033C98.1409 60.3033 98.81 60.4187 99.4328 60.6494L99.0868 62.5873C99.0637 62.7142 99.0118 62.8122 98.9311 62.8814C98.8503 62.9391 98.7407 62.9795 98.6023 63.0025C98.4754 63.0256 98.3313 63.0371 98.1698 63.0371C98.0083 63.0371 97.841 63.0371 97.668 63.0371C97.1835 63.0371 96.7394 63.1063 96.3357 63.2448C95.9435 63.3832 95.5917 63.6024 95.2802 63.9023C94.9688 64.2022 94.7092 64.5944 94.5016 65.0788C94.294 65.5633 94.1498 66.1574 94.0691 66.861L93.896 68.2279H98.0659L97.7199 70.8925H93.6884ZM105.108 82.987C105.881 82.987 106.585 82.7736 107.219 82.3468C107.853 81.9085 108.39 81.3259 108.828 80.5992C109.278 79.8725 109.624 79.0362 109.866 78.0904C110.109 77.133 110.23 76.1352 110.23 75.097C110.23 73.5744 109.947 72.4497 109.382 71.723C108.828 70.9848 108.003 70.6157 106.908 70.6157C106.123 70.6157 105.414 70.8291 104.779 71.2559C104.156 71.6826 103.626 72.2536 103.188 72.9688C102.749 73.684 102.409 74.5203 102.167 75.4777C101.924 76.4351 101.803 77.4386 101.803 78.4883C101.803 81.4874 102.905 82.987 105.108 82.987ZM104.779 85.8938C103.81 85.8938 102.916 85.7323 102.097 85.4093C101.278 85.0748 100.569 84.5961 99.9692 83.9732C99.3809 83.3388 98.9195 82.566 98.585 81.6547C98.2505 80.7319 98.0832 79.688 98.0832 78.5229C98.0832 77.0118 98.3197 75.5988 98.7927 74.2838C99.2771 72.9688 99.9346 71.8268 100.765 70.8579C101.596 69.8774 102.565 69.1103 103.672 68.5567C104.791 67.9914 105.985 67.7088 107.254 67.7088C108.223 67.7088 109.117 67.8761 109.936 68.2106C110.754 68.5336 111.458 69.0123 112.046 69.6467C112.635 70.2696 113.096 71.0425 113.431 71.9653C113.765 72.8765 113.932 73.9147 113.932 75.0797C113.932 76.0717 113.823 77.0291 113.604 77.9519C113.384 78.8747 113.079 79.7399 112.687 80.5473C112.294 81.3432 111.816 82.07 111.25 82.7274C110.697 83.3849 110.08 83.9502 109.399 84.4231C108.73 84.8845 108.003 85.2479 107.219 85.5132C106.435 85.7669 105.621 85.8938 104.779 85.8938ZM121.113 72.5362C121.563 71.6019 122.048 70.8002 122.567 70.1312C123.097 69.4622 123.645 68.9373 124.21 68.5567C124.787 68.176 125.375 67.9511 125.975 67.8819C126.587 67.8126 127.198 67.9107 127.809 68.176L127.135 71.7403C125.67 71.152 124.383 71.3424 123.276 72.3113C122.18 73.2687 121.298 75.0855 120.629 77.7616L119.694 85.6343H116.061L118.189 67.9511H120.058C120.461 67.9511 120.767 68.0549 120.975 68.2625C121.194 68.4586 121.304 68.77 121.304 69.1968L121.113 72.5362ZM158.095 60.7186L155.015 85.6343H151.105L152.472 74.4914H141.208L139.824 85.6343H135.913L138.976 60.7186H142.904L141.554 71.6884H152.818L154.168 60.7186H158.095ZM166.512 82.987C167.285 82.987 167.988 82.7736 168.623 82.3468C169.257 81.9085 169.794 81.3259 170.232 80.5992C170.682 79.8725 171.028 79.0362 171.27 78.0904C171.512 77.133 171.633 76.1352 171.633 75.097C171.633 73.5744 171.351 72.4497 170.786 71.723C170.232 70.9848 169.407 70.6157 168.311 70.6157C167.527 70.6157 166.818 70.8291 166.183 71.2559C165.56 71.6826 165.03 72.2536 164.591 72.9688C164.153 73.684 163.813 74.5203 163.57 75.4777C163.328 76.4351 163.207 77.4386 163.207 78.4883C163.207 81.4874 164.309 82.987 166.512 82.987ZM166.183 85.8938C165.214 85.8938 164.32 85.7323 163.501 85.4093C162.682 85.0748 161.973 84.5961 161.373 83.9732C160.785 83.3388 160.323 82.566 159.989 81.6547C159.654 80.7319 159.487 79.688 159.487 78.5229C159.487 77.0118 159.724 75.5988 160.196 74.2838C160.681 72.9688 161.338 71.8268 162.169 70.8579C162.999 69.8774 163.968 69.1103 165.076 68.5567C166.195 67.9914 167.389 67.7088 168.657 67.7088C169.626 67.7088 170.52 67.8761 171.339 68.2106C172.158 68.5336 172.862 69.0123 173.45 69.6467C174.039 70.2696 174.5 71.0425 174.834 71.9653C175.169 72.8765 175.336 73.9147 175.336 75.0797C175.336 76.0717 175.227 77.0291 175.007 77.9519C174.788 78.8747 174.483 79.7399 174.09 80.5473C173.698 81.3432 173.22 82.07 172.654 82.7274C172.101 83.3849 171.483 83.9502 170.803 84.4231C170.134 84.8845 169.407 85.2479 168.623 85.5132C167.838 85.7669 167.025 85.8938 166.183 85.8938ZM177.465 85.6343L179.593 67.9511H181.462C181.865 67.9511 182.171 68.0549 182.379 68.2625C182.598 68.4586 182.707 68.77 182.707 69.1968L182.552 71.6884C183.382 70.3619 184.282 69.3699 185.251 68.7124C186.231 68.0433 187.264 67.7088 188.348 67.7088C189.478 67.7088 190.344 68.0952 190.943 68.8681C191.543 69.6294 191.866 70.731 191.912 72.1729C192.766 70.6387 193.718 69.5141 194.767 68.7989C195.817 68.0722 196.942 67.7088 198.141 67.7088C199.641 67.7088 200.731 68.2913 201.411 69.4564C202.092 70.6214 202.305 72.2709 202.052 74.4049L200.719 85.6343H197.068L198.383 74.4049C198.464 73.782 198.493 73.2456 198.47 72.7958C198.458 72.3344 198.389 71.9595 198.262 71.6711C198.147 71.3712 197.968 71.152 197.726 71.0136C197.495 70.8752 197.19 70.806 196.809 70.806C196.348 70.806 195.886 70.9271 195.425 71.1693C194.975 71.4116 194.542 71.7634 194.127 72.2248C193.712 72.6862 193.325 73.2514 192.968 73.9204C192.61 74.5895 192.293 75.3508 192.016 76.2044L190.909 85.6343H187.258L188.59 74.4049C188.671 73.782 188.706 73.2456 188.694 72.7958C188.683 72.3344 188.619 71.9595 188.504 71.6711C188.388 71.3712 188.215 71.152 187.985 71.0136C187.754 70.8752 187.448 70.806 187.068 70.806C186.56 70.806 186.076 70.9386 185.614 71.2039C185.153 71.4577 184.714 71.8268 184.299 72.3113C183.884 72.7958 183.498 73.3898 183.14 74.0935C182.782 74.7856 182.465 75.57 182.188 76.4466L181.098 85.6343H177.465ZM213.888 70.3734C213.242 70.3734 212.642 70.5061 212.088 70.7714C211.546 71.0367 211.056 71.4058 210.618 71.8787C210.191 72.3401 209.816 72.8938 209.493 73.5398C209.182 74.1858 208.939 74.8894 208.766 75.6507C210.358 75.4431 211.639 75.2124 212.608 74.9586C213.576 74.7048 214.32 74.428 214.84 74.1281C215.359 73.8282 215.705 73.511 215.878 73.1764C216.051 72.8304 216.137 72.467 216.137 72.0864C216.137 71.9018 216.097 71.7057 216.016 71.4981C215.935 71.2905 215.803 71.1059 215.618 70.9444C215.445 70.7829 215.214 70.6503 214.926 70.5464C214.638 70.4311 214.292 70.3734 213.888 70.3734ZM219.061 82.3641C218.462 82.9755 217.873 83.5061 217.297 83.9559C216.72 84.3943 216.131 84.7576 215.532 85.046C214.932 85.3344 214.303 85.5478 213.646 85.6862C212.988 85.8246 212.273 85.8938 211.5 85.8938C210.474 85.8938 209.551 85.7208 208.732 85.3747C207.913 85.0287 207.209 84.5442 206.621 83.9213C206.044 83.2869 205.6 82.5256 205.289 81.6374C204.977 80.7377 204.821 79.7341 204.821 78.6267C204.821 77.7039 204.919 76.7984 205.116 75.9102C205.312 75.0105 205.594 74.1569 205.963 73.3495C206.344 72.542 206.8 71.798 207.33 71.1174C207.872 70.4253 208.484 69.8313 209.164 69.3353C209.856 68.8393 210.612 68.4528 211.431 68.176C212.261 67.8876 213.15 67.7434 214.096 67.7434C215.007 67.7434 215.797 67.8761 216.466 68.1414C217.135 68.3952 217.689 68.7297 218.127 69.1449C218.577 69.5487 218.911 69.9985 219.131 70.4945C219.35 70.9905 219.459 71.475 219.459 71.948C219.459 72.7208 219.298 73.4302 218.975 74.0762C218.663 74.7221 218.098 75.3046 217.279 75.8237C216.46 76.3428 215.336 76.7927 213.905 77.1733C212.486 77.554 210.664 77.8597 208.438 78.0904C208.426 78.1596 208.42 78.2345 208.42 78.3153C208.42 78.3845 208.42 78.4595 208.42 78.5402C208.42 80.0052 208.738 81.1125 209.372 81.8623C210.006 82.6006 210.958 82.9697 212.227 82.9697C213.023 82.9697 213.686 82.8601 214.217 82.6409C214.747 82.4218 215.197 82.1853 215.566 81.9315C215.947 81.6662 216.276 81.424 216.553 81.2048C216.841 80.9857 217.141 80.8761 217.452 80.8761C217.694 80.8761 217.919 80.9914 218.127 81.2221L219.061 82.3641Z" fill="#747487"></path>
			</svg>